{
	"asset":{
		"generator":"Khronos glTF Blender I/O v4.4.56",
		"version":"2.0"
	},
	"scene":0,
	"scenes":[
		{
			"name":"Scene",
			"nodes":[
				0,
				1,
				2
			]
		}
	],
	"nodes":[
		{
			"mesh":0,
			"name":"brush_Spikes_g0_b0"
		},
		{
			"name":"node_SceneLight_0_i1",
			"rotation":[
				0.4871850609779358,
				0.11247555166482925,
				-0.19481338560581207,
				0.8438292145729065
			],
			"translation":[
				0,
				0.0807855874300003,
				-0.01705794967710972
			]
		},
		{
			"name":"node_SceneLight_1_i2",
			"rotation":[
				0.8830222487449646,
				0.32139381766319275,
				-0.11697777360677719,
				0.32139378786087036
			],
			"translation":[
				0,
				0.02187499962747097,
				-0.05458815023303032
			]
		}
	],
	"materials":[
		{
			"name":"brush_Spikes"
		}
	],
	"meshes":[
		{
			"name":"brush_Spikes_g0_b0",
			"primitives":[
				{
					"attributes":{
						"POSITION":0,
						"NORMAL":1,
						"TEXCOORD_0":2,
						"COLOR_0":3
					},
					"indices":4,
					"material":0
				}
			]
		}
	],
	"accessors":[
		{
			"bufferView":0,
			"componentType":5126,
			"count":48,
			"max":[
				0.000685060047544539,
				0.8687210083007812,
				0.034851789474487305
			],
			"min":[
				-0.4010946750640869,
				-0.011248723603785038,
				-0.1095549464225769
			],
			"type":"VEC3"
		},
		{
			"bufferView":1,
			"componentType":5126,
			"count":48,
			"type":"VEC3"
		},
		{
			"bufferView":2,
			"componentType":5126,
			"count":48,
			"type":"VEC2"
		},
		{
			"bufferView":3,
			"componentType":5126,
			"count":48,
			"type":"VEC3"
		},
		{
			"bufferView":4,
			"componentType":5123,
			"count":126,
			"type":"SCALAR"
		}
	],
	"bufferViews":[
		{
			"buffer":0,
			"byteLength":576,
			"byteOffset":0,
			"target":34962
		},
		{
			"buffer":0,
			"byteLength":576,
			"byteOffset":576,
			"target":34962
		},
		{
			"buffer":0,
			"byteLength":384,
			"byteOffset":1152,
			"target":34962
		},
		{
			"buffer":0,
			"byteLength":576,
			"byteOffset":1536,
			"target":34962
		},
		{
			"buffer":0,
			"byteLength":252,
			"byteOffset":2112,
			"target":34963
		}
	],
	"buffers":[
		{
			"byteLength":2364,
			"uri":"BendingGrassHopefulFixThisTimeForReal.bin"
		}
	]
}
