{
	"asset":{
		"generator":"Khronos glTF Blender I/O v4.5.47",
		"version":"2.0"
	},
	"scene":0,
	"scenes":[
		{
			"name":"Scene",
			"nodes":[
				0,
				1,
				2,
				3,
				4,
				5
			]
		}
	],
	"nodes":[
		{
			"mesh":0,
			"name":"Cube.001"
		},
		{
			"mesh":1,
			"name":"Cube.002",
			"translation":[
				-19.61629295349121,
				0,
				0
			]
		},
		{
			"mesh":2,
			"name":"Cube.003",
			"translation":[
				19.58491325378418,
				0,
				0
			]
		},
		{
			"mesh":3,
			"name":"Cube.004"
		},
		{
			"mesh":4,
			"name":"Cube.005"
		},
		{
			"mesh":5,
			"name":"Cube.007"
		}
	],
	"materials":[
		{
			"name":"Cube.007",
			"normalTexture":{
				"index":0
			},
			"pbrMetallicRoughness":{
				"baseColorTexture":{
					"index":1
				},
				"metallicRoughnessTexture":{
					"index":2
				}
			}
		},
		{
			"name":"Cube.008",
			"normalTexture":{
				"index":3
			},
			"pbrMetallicRoughness":{
				"baseColorTexture":{
					"index":4
				},
				"metallicRoughnessTexture":{
					"index":5
				}
			}
		},
		{
			"name":"Cube.009",
			"normalTexture":{
				"index":6
			},
			"pbrMetallicRoughness":{
				"baseColorTexture":{
					"index":7
				},
				"metallicRoughnessTexture":{
					"index":8
				}
			}
		},
		{
			"name":"Cube.010",
			"normalTexture":{
				"index":9
			},
			"pbrMetallicRoughness":{
				"baseColorTexture":{
					"index":10
				},
				"metallicRoughnessTexture":{
					"index":11
				}
			}
		},
		{
			"name":"Cube.011",
			"normalTexture":{
				"index":12
			},
			"pbrMetallicRoughness":{
				"baseColorTexture":{
					"index":13
				},
				"metallicRoughnessTexture":{
					"index":14
				}
			}
		},
		{
			"emissiveTexture":{
				"index":15
			},
			"name":"Cube.013",
			"normalTexture":{
				"index":16
			},
			"pbrMetallicRoughness":{
				"baseColorTexture":{
					"index":17
				},
				"metallicRoughnessTexture":{
					"index":18
				}
			}
		}
	],
	"meshes":[
		{
			"name":"Cube.005",
			"primitives":[
				{
					"attributes":{
						"POSITION":0,
						"NORMAL":1,
						"TEXCOORD_0":2
					},
					"indices":3,
					"material":0
				}
			]
		},
		{
			"name":"Cube.008",
			"primitives":[
				{
					"attributes":{
						"POSITION":4,
						"NORMAL":5,
						"TEXCOORD_0":6
					},
					"indices":3,
					"material":1
				}
			]
		},
		{
			"name":"Cube.009",
			"primitives":[
				{
					"attributes":{
						"POSITION":7,
						"NORMAL":8,
						"TEXCOORD_0":9
					},
					"indices":3,
					"material":2
				}
			]
		},
		{
			"name":"Cube.010",
			"primitives":[
				{
					"attributes":{
						"POSITION":10,
						"NORMAL":11,
						"TEXCOORD_0":12
					},
					"indices":3,
					"material":3
				}
			]
		},
		{
			"name":"Cube.011",
			"primitives":[
				{
					"attributes":{
						"POSITION":13,
						"NORMAL":14,
						"TEXCOORD_0":15
					},
					"indices":3,
					"material":4
				}
			]
		},
		{
			"name":"Cube.013",
			"primitives":[
				{
					"attributes":{
						"POSITION":16,
						"NORMAL":17,
						"TEXCOORD_0":18
					},
					"indices":3,
					"material":5
				}
			]
		}
	],
	"textures":[
		{
			"sampler":0,
			"source":0
		},
		{
			"sampler":0,
			"source":1
		},
		{
			"sampler":0,
			"source":2
		},
		{
			"sampler":0,
			"source":0
		},
		{
			"sampler":0,
			"source":3
		},
		{
			"sampler":0,
			"source":2
		},
		{
			"sampler":0,
			"source":0
		},
		{
			"sampler":0,
			"source":4
		},
		{
			"sampler":0,
			"source":2
		},
		{
			"sampler":0,
			"source":0
		},
		{
			"sampler":0,
			"source":1
		},
		{
			"sampler":0,
			"source":2
		},
		{
			"sampler":0,
			"source":0
		},
		{
			"sampler":0,
			"source":1
		},
		{
			"sampler":0,
			"source":2
		},
		{
			"sampler":0,
			"source":1
		},
		{
			"sampler":0,
			"source":0
		},
		{
			"sampler":0,
			"source":1
		},
		{
			"sampler":0,
			"source":2
		}
	],
	"images":[
		{
			"mimeType":"image/png",
			"name":"BumpMapFlatColour",
			"uri":"BumpMapFlatColour.png"
		},
		{
			"mimeType":"image/jpeg",
			"name":"White",
			"uri":"White.jpg"
		},
		{
			"mimeType":"image/png",
			"name":"streaky-metal1_metallic",
			"uri":"streaky-metal1_metallic.png"
		},
		{
			"mimeType":"image/jpeg",
			"name":"Green",
			"uri":"Green.jpg"
		},
		{
			"mimeType":"image/jpeg",
			"name":"Red",
			"uri":"Red.jpg"
		}
	],
	"accessors":[
		{
			"bufferView":0,
			"componentType":5126,
			"count":36,
			"max":[
				10,
				-2.799999952316284,
				8.738597869873047
			],
			"min":[
				-10,
				-3.200000047683716,
				-11.261411666870117
			],
			"type":"VEC3"
		},
		{
			"bufferView":1,
			"componentType":5126,
			"count":36,
			"type":"VEC3"
		},
		{
			"bufferView":2,
			"componentType":5126,
			"count":36,
			"type":"VEC2"
		},
		{
			"bufferView":3,
			"componentType":5123,
			"count":36,
			"type":"SCALAR"
		},
		{
			"bufferView":4,
			"componentType":5126,
			"count":36,
			"max":[
				10.035724639892578,
				16.801422119140625,
				8.765523910522461
			],
			"min":[
				9.635721206665039,
				-3.1985816955566406,
				-11.127073287963867
			],
			"type":"VEC3"
		},
		{
			"bufferView":5,
			"componentType":5126,
			"count":36,
			"type":"VEC3"
		},
		{
			"bufferView":6,
			"componentType":5126,
			"count":36,
			"type":"VEC2"
		},
		{
			"bufferView":7,
			"componentType":5126,
			"count":36,
			"max":[
				-9.61034870147705,
				16.801422119140625,
				8.765523910522461
			],
			"min":[
				-10.01035213470459,
				-3.1985816955566406,
				-11.127073287963867
			],
			"type":"VEC3"
		},
		{
			"bufferView":8,
			"componentType":5126,
			"count":36,
			"type":"VEC3"
		},
		{
			"bufferView":9,
			"componentType":5126,
			"count":36,
			"type":"VEC2"
		},
		{
			"bufferView":10,
			"componentType":5126,
			"count":36,
			"max":[
				10,
				17.186019897460938,
				8.738597869873047
			],
			"min":[
				-10,
				16.78601837158203,
				-11.261411666870117
			],
			"type":"VEC3"
		},
		{
			"bufferView":11,
			"componentType":5126,
			"count":36,
			"type":"VEC3"
		},
		{
			"bufferView":12,
			"componentType":5126,
			"count":36,
			"type":"VEC2"
		},
		{
			"bufferView":13,
			"componentType":5126,
			"count":36,
			"max":[
				10.051677703857422,
				17.11444664001465,
				9.146371841430664
			],
			"min":[
				-9.951467514038086,
				-2.885554790496826,
				8.532407760620117
			],
			"type":"VEC3"
		},
		{
			"bufferView":14,
			"componentType":5126,
			"count":36,
			"type":"VEC3"
		},
		{
			"bufferView":15,
			"componentType":5126,
			"count":36,
			"type":"VEC2"
		},
		{
			"bufferView":16,
			"componentType":5126,
			"count":36,
			"max":[
				1.6368789672851562,
				16.879392623901367,
				0.4044480323791504
			],
			"min":[
				-3.392706871032715,
				16.318618774414062,
				-4.625139236450195
			],
			"type":"VEC3"
		},
		{
			"bufferView":17,
			"componentType":5126,
			"count":36,
			"type":"VEC3"
		},
		{
			"bufferView":18,
			"componentType":5126,
			"count":36,
			"type":"VEC2"
		}
	],
	"bufferViews":[
		{
			"buffer":0,
			"byteLength":432,
			"byteOffset":0,
			"target":34962
		},
		{
			"buffer":0,
			"byteLength":432,
			"byteOffset":432,
			"target":34962
		},
		{
			"buffer":0,
			"byteLength":288,
			"byteOffset":864,
			"target":34962
		},
		{
			"buffer":0,
			"byteLength":72,
			"byteOffset":1152,
			"target":34963
		},
		{
			"buffer":0,
			"byteLength":432,
			"byteOffset":1224,
			"target":34962
		},
		{
			"buffer":0,
			"byteLength":432,
			"byteOffset":1656,
			"target":34962
		},
		{
			"buffer":0,
			"byteLength":288,
			"byteOffset":2088,
			"target":34962
		},
		{
			"buffer":0,
			"byteLength":432,
			"byteOffset":2376,
			"target":34962
		},
		{
			"buffer":0,
			"byteLength":432,
			"byteOffset":2808,
			"target":34962
		},
		{
			"buffer":0,
			"byteLength":288,
			"byteOffset":3240,
			"target":34962
		},
		{
			"buffer":0,
			"byteLength":432,
			"byteOffset":3528,
			"target":34962
		},
		{
			"buffer":0,
			"byteLength":432,
			"byteOffset":3960,
			"target":34962
		},
		{
			"buffer":0,
			"byteLength":288,
			"byteOffset":4392,
			"target":34962
		},
		{
			"buffer":0,
			"byteLength":432,
			"byteOffset":4680,
			"target":34962
		},
		{
			"buffer":0,
			"byteLength":432,
			"byteOffset":5112,
			"target":34962
		},
		{
			"buffer":0,
			"byteLength":288,
			"byteOffset":5544,
			"target":34962
		},
		{
			"buffer":0,
			"byteLength":432,
			"byteOffset":5832,
			"target":34962
		},
		{
			"buffer":0,
			"byteLength":432,
			"byteOffset":6264,
			"target":34962
		},
		{
			"buffer":0,
			"byteLength":288,
			"byteOffset":6696,
			"target":34962
		}
	],
	"samplers":[
		{
			"magFilter":9729,
			"minFilter":9987
		}
	],
	"buffers":[
		{
			"byteLength":6984,
			"uri":"Cornel.bin"
		}
	]
}
