{
	"asset":{
		"generator":"Khronos glTF Blender I/O v4.4.56",
		"version":"2.0"
	},
	"scene":0,
	"scenes":[
		{
			"name":"Scene",
			"nodes":[
				0
			]
		}
	],
	"nodes":[
		{
			"mesh":0,
			"name":"Cube.001",
			"scale":[
				0.17000001668930054,
				1,
				3.93999981880188
			],
			"translation":[
				-3.820000171661377,
				0,
				0
			]
		}
	],
	"materials":[
		{
			"doubleSided":true,
			"name":"Material.001",
			"pbrMetallicRoughness":{
				"baseColorFactor":[
					0.800000011920929,
					0.800000011920929,
					0.800000011920929,
					1
				],
				"metallicFactor":0,
				"roughnessFactor":0.5
			}
		},
		{
			"doubleSided":true,
			"name":"Material.002",
			"pbrMetallicRoughness":{
				"baseColorFactor":[
					0.800000011920929,
					0.800000011920929,
					0.800000011920929,
					1
				],
				"metallicFactor":0,
				"roughnessFactor":0.5
			}
		},
		{
			"doubleSided":true,
			"name":"Material.003",
			"pbrMetallicRoughness":{
				"baseColorFactor":[
					0.800000011920929,
					0.800000011920929,
					0.800000011920929,
					1
				],
				"metallicFactor":0,
				"roughnessFactor":0.5
			}
		},
		{
			"doubleSided":true,
			"name":"Material.004",
			"pbrMetallicRoughness":{
				"baseColorFactor":[
					0.800000011920929,
					0.800000011920929,
					0.800000011920929,
					1
				],
				"metallicFactor":0,
				"roughnessFactor":0.5
			}
		},
		{
			"doubleSided":true,
			"name":"Material.005",
			"pbrMetallicRoughness":{
				"baseColorFactor":[
					0.800000011920929,
					0.800000011920929,
					0.800000011920929,
					1
				],
				"metallicFactor":0,
				"roughnessFactor":0.5
			}
		}
	],
	"meshes":[
		{
			"name":"Cube.001",
			"primitives":[
				{
					"attributes":{
						"POSITION":0,
						"NORMAL":1,
						"TEXCOORD_0":2
					},
					"indices":3,
					"material":0
				},
				{
					"attributes":{
						"POSITION":4,
						"NORMAL":5,
						"TEXCOORD_0":6
					},
					"indices":3,
					"material":1
				},
				{
					"attributes":{
						"POSITION":7,
						"NORMAL":8,
						"TEXCOORD_0":9
					},
					"indices":3,
					"material":2
				},
				{
					"attributes":{
						"POSITION":10,
						"NORMAL":11,
						"TEXCOORD_0":12
					},
					"indices":3,
					"material":3
				},
				{
					"attributes":{
						"POSITION":13,
						"NORMAL":14,
						"TEXCOORD_0":15
					},
					"indices":3,
					"material":4
				}
			]
		}
	],
	"accessors":[
		{
			"bufferView":0,
			"componentType":5126,
			"count":14,
			"max":[
				1,
				1,
				1
			],
			"min":[
				-1,
				-1,
				-1
			],
			"type":"VEC3"
		},
		{
			"bufferView":1,
			"componentType":5126,
			"count":14,
			"type":"VEC3"
		},
		{
			"bufferView":2,
			"componentType":5126,
			"count":14,
			"type":"VEC2"
		},
		{
			"bufferView":3,
			"componentType":5123,
			"count":36,
			"type":"SCALAR"
		},
		{
			"bufferView":4,
			"componentType":5126,
			"count":14,
			"max":[
				50.05882263183594,
				1,
				-0.9771573543548584
			],
			"min":[
				23.117647171020508,
				-1,
				-1.0634517669677734
			],
			"type":"VEC3"
		},
		{
			"bufferView":5,
			"componentType":5126,
			"count":14,
			"type":"VEC3"
		},
		{
			"bufferView":6,
			"componentType":5126,
			"count":14,
			"type":"VEC2"
		},
		{
			"bufferView":7,
			"componentType":5126,
			"count":14,
			"max":[
				25.117645263671875,
				1,
				0.9999999403953552
			],
			"min":[
				23.117645263671875,
				-1,
				-0.9999999403953552
			],
			"type":"VEC3"
		},
		{
			"bufferView":8,
			"componentType":5126,
			"count":14,
			"type":"VEC3"
		},
		{
			"bufferView":9,
			"componentType":5126,
			"count":14,
			"type":"VEC2"
		},
		{
			"bufferView":10,
			"componentType":5126,
			"count":14,
			"max":[
				1.0588264465332031,
				1,
				-0.972081184387207
			],
			"min":[
				-25.882347106933594,
				-1,
				-1.058375597000122
			],
			"type":"VEC3"
		},
		{
			"bufferView":11,
			"componentType":5126,
			"count":14,
			"type":"VEC3"
		},
		{
			"bufferView":12,
			"componentType":5126,
			"count":14,
			"type":"VEC2"
		},
		{
			"bufferView":13,
			"componentType":5126,
			"count":14,
			"max":[
				63.70587158203125,
				-0.9599996209144592,
				1.6294416189193726
			],
			"min":[
				-27.588232040405273,
				-1.3000003099441528,
				-1.6548222303390503
			],
			"type":"VEC3"
		},
		{
			"bufferView":14,
			"componentType":5126,
			"count":14,
			"type":"VEC3"
		},
		{
			"bufferView":15,
			"componentType":5126,
			"count":14,
			"type":"VEC2"
		}
	],
	"bufferViews":[
		{
			"buffer":0,
			"byteLength":168,
			"byteOffset":0,
			"target":34962
		},
		{
			"buffer":0,
			"byteLength":168,
			"byteOffset":168,
			"target":34962
		},
		{
			"buffer":0,
			"byteLength":112,
			"byteOffset":336,
			"target":34962
		},
		{
			"buffer":0,
			"byteLength":72,
			"byteOffset":448,
			"target":34963
		},
		{
			"buffer":0,
			"byteLength":168,
			"byteOffset":520,
			"target":34962
		},
		{
			"buffer":0,
			"byteLength":168,
			"byteOffset":688,
			"target":34962
		},
		{
			"buffer":0,
			"byteLength":112,
			"byteOffset":856,
			"target":34962
		},
		{
			"buffer":0,
			"byteLength":168,
			"byteOffset":968,
			"target":34962
		},
		{
			"buffer":0,
			"byteLength":168,
			"byteOffset":1136,
			"target":34962
		},
		{
			"buffer":0,
			"byteLength":112,
			"byteOffset":1304,
			"target":34962
		},
		{
			"buffer":0,
			"byteLength":168,
			"byteOffset":1416,
			"target":34962
		},
		{
			"buffer":0,
			"byteLength":168,
			"byteOffset":1584,
			"target":34962
		},
		{
			"buffer":0,
			"byteLength":112,
			"byteOffset":1752,
			"target":34962
		},
		{
			"buffer":0,
			"byteLength":168,
			"byteOffset":1864,
			"target":34962
		},
		{
			"buffer":0,
			"byteLength":168,
			"byteOffset":2032,
			"target":34962
		},
		{
			"buffer":0,
			"byteLength":112,
			"byteOffset":2200,
			"target":34962
		}
	],
	"buffers":[
		{
			"byteLength":2312,
			"uri":"Room.bin"
		}
	]
}
