{
	"asset":{
		"generator":"Khronos glTF Blender I/O v4.5.47",
		"version":"2.0"
	},
	"extensionsUsed":[
		"KHR_materials_clearcoat",
		"KHR_materials_specular",
		"KHR_materials_ior"
	],
	"scene":0,
	"scenes":[
		{
			"name":"Scene",
			"nodes":[
				0,
				1,
				2,
				3,
				4
			]
		}
	],
	"nodes":[
		{
			"mesh":0,
			"name":"Head",
			"rotation":[
				0.70710688829422,
				0,
				0,
				0.7071066498756409
			],
			"scale":[
				100,
				99.99999237060547,
				99.99999237060547
			]
		},
		{
			"mesh":1,
			"name":"Lashes",
			"rotation":[
				0.70710688829422,
				0,
				0,
				0.7071066498756409
			],
			"scale":[
				100,
				99.99999237060547,
				99.99999237060547
			]
		},
		{
			"mesh":2,
			"name":"Brows",
			"rotation":[
				0.70710688829422,
				0,
				0,
				0.7071066498756409
			],
			"scale":[
				100,
				99.99999237060547,
				99.99999237060547
			]
		},
		{
			"mesh":3,
			"name":"Realtime Eyeball Right",
			"rotation":[
				0.70710688829422,
				0,
				0,
				0.7071066498756409
			],
			"scale":[
				100,
				99.99999237060547,
				99.99999237060547
			]
		},
		{
			"mesh":4,
			"name":"Realtime Eyeball Left",
			"rotation":[
				0.70710688829422,
				0,
				0,
				0.7071066498756409
			],
			"scale":[
				100,
				99.99999237060547,
				99.99999237060547
			]
		}
	],
	"materials":[
		{
			"doubleSided":true,
			"extensions":{
				"KHR_materials_clearcoat":{
					"clearcoatFactor":0.04848484694957733,
					"clearcoatRoughnessFactor":0.12393935769796371
				},
				"KHR_materials_specular":{
					"specularTexture":{
						"index":0
					}
				},
				"KHR_materials_ior":{
					"ior":1.4500000476837158
				}
			},
			"name":"Material.002",
			"normalTexture":{
				"index":1
			},
			"pbrMetallicRoughness":{
				"baseColorTexture":{
					"index":2
				},
				"metallicFactor":0,
				"metallicRoughnessTexture":{
					"index":3
				}
			}
		},
		{
			"alphaMode":"BLEND",
			"doubleSided":true,
			"extensions":{
				"KHR_materials_specular":{
					"specularColorFactor":[
						2.0,
						2.0,
						2.0
					]
				},
				"KHR_materials_ior":{
					"ior":1.4500000476837158
				}
			},
			"name":"Brows.002",
			"pbrMetallicRoughness":{
				"baseColorFactor":[
					0.10293853282928467,
					0.10293853282928467,
					0.10293853282928467,
					0.7212121486663818
				]
			}
		},
		{
			"doubleSided":true,
			"extensions":{
				"KHR_materials_specular":{
					"specularTexture":{
						"index":4
					}
				},
				"KHR_materials_ior":{
					"ior":1.4500000476837158
				}
			},
			"name":"Realtime Eyeball Left.002",
			"normalTexture":{
				"index":5
			},
			"pbrMetallicRoughness":{
				"baseColorTexture":{
					"index":6
				},
				"metallicFactor":0,
				"metallicRoughnessTexture":{
					"index":7
				}
			}
		}
	],
	"meshes":[
		{
			"name":"Head.002",
			"primitives":[
				{
					"attributes":{
						"POSITION":0,
						"NORMAL":1,
						"TEXCOORD_0":2,
						"TANGENT":3
					},
					"indices":4,
					"material":0
				}
			]
		},
		{
			"name":"Lashes.002",
			"primitives":[
				{
					"attributes":{
						"POSITION":5,
						"NORMAL":6,
						"COLOR_0":7,
						"COLOR_1":8
					},
					"indices":9,
					"material":1
				}
			]
		},
		{
			"name":"Brows.002",
			"primitives":[
				{
					"attributes":{
						"POSITION":10,
						"NORMAL":11,
						"COLOR_0":12,
						"COLOR_1":13
					},
					"indices":14,
					"material":1
				}
			]
		},
		{
			"name":"Realtime Eyeball Right.002",
			"primitives":[
				{
					"attributes":{
						"POSITION":15,
						"NORMAL":16,
						"TEXCOORD_0":17,
						"TANGENT":18,
						"COLOR_0":19,
						"COLOR_1":20
					},
					"indices":21,
					"material":2
				}
			]
		},
		{
			"name":"Realtime Eyeball Left.002",
			"primitives":[
				{
					"attributes":{
						"POSITION":22,
						"NORMAL":23,
						"TEXCOORD_0":24,
						"TANGENT":25,
						"COLOR_0":26,
						"COLOR_1":27
					},
					"indices":21,
					"material":2
				}
			]
		}
	],
	"textures":[
		{
			"sampler":0,
			"source":0
		},
		{
			"sampler":0,
			"source":1
		},
		{
			"sampler":0,
			"source":2
		},
		{
			"sampler":0,
			"source":3
		},
		{
			"sampler":0,
			"source":4
		},
		{
			"sampler":0,
			"source":5
		},
		{
			"sampler":0,
			"source":6
		},
		{
			"sampler":0,
			"source":7
		}
	],
	"images":[
		{
			"mimeType":"image/jpeg",
			"name":"Face_Specular",
			"uri":"Face_Specular.jpg"
		},
		{
			"mimeType":"image/jpeg",
			"name":"Face_Normal",
			"uri":"Face_Normal.jpg"
		},
		{
			"mimeType":"image/jpeg",
			"name":"Face_Albedo",
			"uri":"Face_Albedo.jpg"
		},
		{
			"mimeType":"image/png",
			"name":"Face_Roughness",
			"uri":"Face_Roughness.png"
		},
		{
			"mimeType":"image/jpeg",
			"name":"Eyes_Balls_Spec",
			"uri":"Eyes_Balls_Spec.jpg"
		},
		{
			"mimeType":"image/jpeg",
			"name":"Eyes_Balls_Normals",
			"uri":"Eyes_Balls_Normals.jpg"
		},
		{
			"mimeType":"image/jpeg",
			"name":"Eyes_Balls_Diffuse",
			"uri":"Eyes_Balls_Diffuse.jpg"
		},
		{
			"mimeType":"image/png",
			"name":"Eyes_Balls_Roughness",
			"uri":"Eyes_Balls_Roughness.png"
		}
	],
	"accessors":[
		{
			"bufferView":0,
			"componentType":5126,
			"count":12855,
			"max":[
				0.11685123294591904,
				0.1480276882648468,
				-0.05689515173435211
			],
			"min":[
				-0.11837166547775269,
				-0.0716710090637207,
				-0.3967655897140503
			],
			"type":"VEC3"
		},
		{
			"bufferView":1,
			"componentType":5126,
			"count":12855,
			"type":"VEC3"
		},
		{
			"bufferView":2,
			"componentType":5126,
			"count":12855,
			"type":"VEC2"
		},
		{
			"bufferView":3,
			"componentType":5126,
			"count":12855,
			"type":"VEC4"
		},
		{
			"bufferView":4,
			"componentType":5123,
			"count":74460,
			"type":"SCALAR"
		},
		{
			"bufferView":5,
			"componentType":5126,
			"count":50120,
			"max":[
				0.04909150302410126,
				0.1220361739397049,
				-0.2892359495162964
			],
			"min":[
				-0.04884207248687744,
				0.1037914976477623,
				-0.30815911293029785
			],
			"type":"VEC3"
		},
		{
			"bufferView":6,
			"componentType":5126,
			"count":50120,
			"type":"VEC3"
		},
		{
			"bufferView":7,
			"componentType":5123,
			"count":50120,
			"normalized":true,
			"type":"VEC4"
		},
		{
			"bufferView":8,
			"componentType":5123,
			"count":50120,
			"normalized":true,
			"type":"VEC4"
		},
		{
			"bufferView":9,
			"componentType":5123,
			"count":217170,
			"type":"SCALAR"
		},
		{
			"bufferView":10,
			"componentType":5126,
			"count":121586,
			"max":[
				0.057418856769800186,
				0.12737585604190826,
				-0.3053502142429352
			],
			"min":[
				-0.05850868672132492,
				0.08406390994787216,
				-0.3237820267677307
			],
			"type":"VEC3"
		},
		{
			"bufferView":11,
			"componentType":5126,
			"count":121586,
			"type":"VEC3"
		},
		{
			"bufferView":12,
			"componentType":5123,
			"count":121586,
			"normalized":true,
			"type":"VEC4"
		},
		{
			"bufferView":13,
			"componentType":5123,
			"count":121586,
			"normalized":true,
			"type":"VEC4"
		},
		{
			"bufferView":14,
			"componentType":5125,
			"count":527532,
			"type":"SCALAR"
		},
		{
			"bufferView":15,
			"componentType":5126,
			"count":1730,
			"max":[
				-0.014362766407430172,
				0.11373716592788696,
				-0.28328585624694824
			],
			"min":[
				-0.04485176131129265,
				0.08195453882217407,
				-0.3137787878513336
			],
			"type":"VEC3"
		},
		{
			"bufferView":16,
			"componentType":5126,
			"count":1730,
			"type":"VEC3"
		},
		{
			"bufferView":17,
			"componentType":5126,
			"count":1730,
			"type":"VEC2"
		},
		{
			"bufferView":18,
			"componentType":5126,
			"count":1730,
			"type":"VEC4"
		},
		{
			"bufferView":19,
			"componentType":5126,
			"count":1730,
			"type":"VEC3"
		},
		{
			"bufferView":20,
			"componentType":5123,
			"count":1730,
			"normalized":true,
			"type":"VEC4"
		},
		{
			"bufferView":21,
			"componentType":5123,
			"count":9984,
			"type":"SCALAR"
		},
		{
			"bufferView":22,
			"componentType":5126,
			"count":1730,
			"max":[
				0.044905632734298706,
				0.11385005712509155,
				-0.28301259875297546
			],
			"min":[
				0.014556736685335636,
				0.0822417363524437,
				-0.3133627474308014
			],
			"type":"VEC3"
		},
		{
			"bufferView":23,
			"componentType":5126,
			"count":1730,
			"type":"VEC3"
		},
		{
			"bufferView":24,
			"componentType":5126,
			"count":1730,
			"type":"VEC2"
		},
		{
			"bufferView":25,
			"componentType":5126,
			"count":1730,
			"type":"VEC4"
		},
		{
			"bufferView":26,
			"componentType":5126,
			"count":1730,
			"type":"VEC3"
		},
		{
			"bufferView":27,
			"componentType":5123,
			"count":1730,
			"normalized":true,
			"type":"VEC4"
		}
	],
	"bufferViews":[
		{
			"buffer":0,
			"byteLength":154260,
			"byteOffset":0,
			"target":34962
		},
		{
			"buffer":0,
			"byteLength":154260,
			"byteOffset":154260,
			"target":34962
		},
		{
			"buffer":0,
			"byteLength":102840,
			"byteOffset":308520,
			"target":34962
		},
		{
			"buffer":0,
			"byteLength":205680,
			"byteOffset":411360,
			"target":34962
		},
		{
			"buffer":0,
			"byteLength":148920,
			"byteOffset":617040,
			"target":34963
		},
		{
			"buffer":0,
			"byteLength":601440,
			"byteOffset":765960,
			"target":34962
		},
		{
			"buffer":0,
			"byteLength":601440,
			"byteOffset":1367400,
			"target":34962
		},
		{
			"buffer":0,
			"byteLength":400960,
			"byteOffset":1968840,
			"target":34962
		},
		{
			"buffer":0,
			"byteLength":400960,
			"byteOffset":2369800,
			"target":34962
		},
		{
			"buffer":0,
			"byteLength":434340,
			"byteOffset":2770760,
			"target":34963
		},
		{
			"buffer":0,
			"byteLength":1459032,
			"byteOffset":3205100,
			"target":34962
		},
		{
			"buffer":0,
			"byteLength":1459032,
			"byteOffset":4664132,
			"target":34962
		},
		{
			"buffer":0,
			"byteLength":972688,
			"byteOffset":6123164,
			"target":34962
		},
		{
			"buffer":0,
			"byteLength":972688,
			"byteOffset":7095852,
			"target":34962
		},
		{
			"buffer":0,
			"byteLength":2110128,
			"byteOffset":8068540,
			"target":34963
		},
		{
			"buffer":0,
			"byteLength":20760,
			"byteOffset":10178668,
			"target":34962
		},
		{
			"buffer":0,
			"byteLength":20760,
			"byteOffset":10199428,
			"target":34962
		},
		{
			"buffer":0,
			"byteLength":13840,
			"byteOffset":10220188,
			"target":34962
		},
		{
			"buffer":0,
			"byteLength":27680,
			"byteOffset":10234028,
			"target":34962
		},
		{
			"buffer":0,
			"byteLength":20760,
			"byteOffset":10261708,
			"target":34962
		},
		{
			"buffer":0,
			"byteLength":13840,
			"byteOffset":10282468,
			"target":34962
		},
		{
			"buffer":0,
			"byteLength":19968,
			"byteOffset":10296308,
			"target":34963
		},
		{
			"buffer":0,
			"byteLength":20760,
			"byteOffset":10316276,
			"target":34962
		},
		{
			"buffer":0,
			"byteLength":20760,
			"byteOffset":10337036,
			"target":34962
		},
		{
			"buffer":0,
			"byteLength":13840,
			"byteOffset":10357796,
			"target":34962
		},
		{
			"buffer":0,
			"byteLength":27680,
			"byteOffset":10371636,
			"target":34962
		},
		{
			"buffer":0,
			"byteLength":20760,
			"byteOffset":10399316,
			"target":34962
		},
		{
			"buffer":0,
			"byteLength":13840,
			"byteOffset":10420076,
			"target":34962
		}
	],
	"samplers":[
		{
			"magFilter":9729,
			"minFilter":9987
		}
	],
	"buffers":[
		{
			"byteLength":10433916,
			"uri":"Untitled.bin"
		}
	]
}
