{
  "accessors": [
    {
      "bufferView": 2,
      "componentType": 5126,
      "count": 65534,
      "max": [
        108.54359436035156,
        20.038421630859375,
        84.44340515136719
      ],
      "min": [
        -125.70075225830078,
        -553.5846557617188,
        -92.49128723144531
      ],
      "type": "VEC3"
    },
    {
      "bufferView": 2,
      "byteOffset": 786408,
      "componentType": 5126,
      "count": 65534,
      "max": [
        1.0,
        1.0,
        1.0
      ],
      "min": [
        -1.0,
        -1.0,
        -1.0
      ],
      "type": "VEC3"
    },
    {
      "bufferView": 3,
      "componentType": 5126,
      "count": 65534,
      "max": [
        1.0,
        1.0,
        1.0,
        1.0
      ],
      "min": [
        -1.0,
        -1.0,
        -1.0,
        -1.0
      ],
      "type": "VEC4"
    },
    {
      "bufferView": 1,
      "componentType": 5126,
      "count": 65534,
      "max": [
        0.9995870590209961,
        0.9996795654296875
      ],
      "min": [
        0.000244140625,
        0.000244140625
      ],
      "type": "VEC2"
    },
    {
      "bufferView": 1,
      "byteOffset": 524272,
      "componentType": 5126,
      "count": 65534,
      "max": [
        0.9995870590209961,
        0.9996795654296875
      ],
      "min": [
        0.000244140625,
        0.000244140625
      ],
      "type": "VEC2"
    },
    {
      "bufferView": 1,
      "byteOffset": 1048544,
      "componentType": 5126,
      "count": 65534,
      "max": [
        0.9995870590209961,
        0.9996795654296875
      ],
      "min": [
        0.000244140625,
        0.000244140625
      ],
      "type": "VEC2"
    },
    {
      "bufferView": 0,
      "componentType": 5125,
      "count": 205383,
      "type": "SCALAR"
    },
    {
      "bufferView": 2,
      "byteOffset": 1572816,
      "componentType": 5126,
      "count": 65534,
      "max": [
        102.82447814941406,
        -68.82609558105469,
        -12.832073211669922
      ],
      "min": [
        -104.36563110351563,
        -496.9966735839844,
        -92.49134063720703
      ],
      "type": "VEC3"
    },
    {
      "bufferView": 2,
      "byteOffset": 2359224,
      "componentType": 5126,
      "count": 65534,
      "max": [
        1.0,
        1.0,
        1.0
      ],
      "min": [
        -1.0,
        -1.0,
        -1.0
      ],
      "type": "VEC3"
    },
    {
      "bufferView": 3,
      "byteOffset": 1048544,
      "componentType": 5126,
      "count": 65534,
      "max": [
        1.0,
        1.0,
        0.9996923804283142,
        1.0
      ],
      "min": [
        -1.0,
        -1.0,
        -0.9999949336051941,
        -1.0
      ],
      "type": "VEC4"
    },
    {
      "bufferView": 1,
      "byteOffset": 1572816,
      "componentType": 5126,
      "count": 65534,
      "max": [
        0.999755859375,
        0.9996767640113831
      ],
      "min": [
        0.000244140625,
        0.00024414871586486697
      ],
      "type": "VEC2"
    },
    {
      "bufferView": 1,
      "byteOffset": 2097088,
      "componentType": 5126,
      "count": 65534,
      "max": [
        0.999755859375,
        0.9996767640113831
      ],
      "min": [
        0.000244140625,
        0.00024414871586486697
      ],
      "type": "VEC2"
    },
    {
      "bufferView": 1,
      "byteOffset": 2621360,
      "componentType": 5126,
      "count": 65534,
      "max": [
        0.999755859375,
        0.9996767640113831
      ],
      "min": [
        0.000244140625,
        0.00024414871586486697
      ],
      "type": "VEC2"
    },
    {
      "bufferView": 0,
      "byteOffset": 821532,
      "componentType": 5125,
      "count": 174072,
      "type": "SCALAR"
    },
    {
      "bufferView": 2,
      "byteOffset": 3145632,
      "componentType": 5126,
      "count": 17002,
      "max": [
        124.1596450805664,
        13.331817626953125,
        84.04570007324219
      ],
      "min": [
        -101.4962158203125,
        -550.3721923828125,
        -77.25611114501953
      ],
      "type": "VEC3"
    },
    {
      "bufferView": 2,
      "byteOffset": 3349656,
      "componentType": 5126,
      "count": 17002,
      "max": [
        1.0,
        1.0,
        1.0
      ],
      "min": [
        -1.0,
        -1.0,
        -1.0
      ],
      "type": "VEC3"
    },
    {
      "bufferView": 3,
      "byteOffset": 2097088,
      "componentType": 5126,
      "count": 17002,
      "max": [
        1.0,
        1.0,
        0.9999998807907104,
        1.0
      ],
      "min": [
        -1.0,
        -1.0,
        -0.9999997615814209,
        -1.0
      ],
      "type": "VEC4"
    },
    {
      "bufferView": 1,
      "byteOffset": 3145632,
      "componentType": 5126,
      "count": 17002,
      "max": [
        0.9994849562644958,
        0.9996289014816284
      ],
      "min": [
        0.000244140625,
        0.00024415997904725373
      ],
      "type": "VEC2"
    },
    {
      "bufferView": 1,
      "byteOffset": 3281648,
      "componentType": 5126,
      "count": 17002,
      "max": [
        0.9994849562644958,
        0.9996289014816284
      ],
      "min": [
        0.000244140625,
        0.00024415997904725373
      ],
      "type": "VEC2"
    },
    {
      "bufferView": 1,
      "byteOffset": 3417664,
      "componentType": 5126,
      "count": 17002,
      "max": [
        0.9994849562644958,
        0.9996289014816284
      ],
      "min": [
        0.000244140625,
        0.00024415997904725373
      ],
      "type": "VEC2"
    },
    {
      "bufferView": 0,
      "byteOffset": 1517820,
      "componentType": 5125,
      "count": 70161,
      "type": "SCALAR"
    }
  ],
  "asset": {
    "extras": {
      "author": "mohamedhussien (https://sketchfab.com/mohamedhussien)",
      "license": "SKETCHFAB Standard (https://sketchfab.com/licenses)",
      "source": "https://sketchfab.com/3d-models/imperfect-black-bmw-e36-a471598220664ff0b9e419c31ed0142e",
      "title": "Imperfect-black-bmw-e36"
    },
    "generator": "Sketchfab-16.56.0",
    "version": "2.0"
  },
  "bufferViews": [
    {
      "buffer": 0,
      "byteLength": 1798464,
      "name": "floatBufferViews",
      "target": 34963
    },
    {
      "buffer": 0,
      "byteLength": 3553680,
      "byteOffset": 1798464,
      "byteStride": 8,
      "name": "floatBufferViews",
      "target": 34962
    },
    {
      "buffer": 0,
      "byteLength": 3553680,
      "byteOffset": 5352144,
      "byteStride": 12,
      "name": "floatBufferViews",
      "target": 34962
    },
    {
      "buffer": 0,
      "byteLength": 2369120,
      "byteOffset": 8905824,
      "byteStride": 16,
      "name": "floatBufferViews",
      "target": 34962
    }
  ],
  "buffers": [
    {
      "byteLength": 11274944,
      "uri": "scene.bin"
    }
  ],
  "images": [
    {
      "uri": "textures/Material_1.007_baseColor.jpeg"
    },
    {
      "uri": "textures/Material_1.007_metallicRoughness.png"
    },
    {
      "uri": "textures/Material_1.007_normal.png"
    }
  ],
  "materials": [
    {
      "doubleSided": true,
      "name": "Material_1.007",
      "normalTexture": {
        "index": 2,
        "texCoord": 1
      },
      "pbrMetallicRoughness": {
        "baseColorTexture": {
          "index": 0
        },
        "metallicRoughnessTexture": {
          "index": 1
        }
      }
    }
  ],
  "meshes": [
    {
      "name": "Tire.001_Material #1.007_0",
      "primitives": [
        {
          "attributes": {
            "NORMAL": 1,
            "POSITION": 0,
            "TANGENT": 2,
            "TEXCOORD_0": 3,
            "TEXCOORD_1": 4,
            "TEXCOORD_2": 5
          },
          "indices": 6,
          "material": 0,
          "mode": 4
        }
      ]
    },
    {
      "name": "Tire.001_Material #1.007_0",
      "primitives": [
        {
          "attributes": {
            "NORMAL": 8,
            "POSITION": 7,
            "TANGENT": 9,
            "TEXCOORD_0": 10,
            "TEXCOORD_1": 11,
            "TEXCOORD_2": 12
          },
          "indices": 13,
          "material": 0,
          "mode": 4
        }
      ]
    },
    {
      "name": "Tire.001_Material #1.007_0",
      "primitives": [
        {
          "attributes": {
            "NORMAL": 15,
            "POSITION": 14,
            "TANGENT": 16,
            "TEXCOORD_0": 17,
            "TEXCOORD_1": 18,
            "TEXCOORD_2": 19
          },
          "indices": 20,
          "material": 0,
          "mode": 4
        }
      ]
    }
  ],
  "nodes": [
    {
      "children": [
        1
      ],
      "matrix": [
        1.0,
        0.0,
        0.0,
        0.0,
        0.0,
        2.220446049250313e-16,
        -1.0,
        0.0,
        0.0,
        1.0,
        2.220446049250313e-16,
        0.0,
        0.0,
        0.0,
        0.0,
        1.0
      ],
      "name": "Sketchfab_model"
    },
    {
      "children": [
        2
      ],
      "matrix": [
        0.009999999776482582,
        0.0,
        0.0,
        0.0,
        0.0,
        0.0,
        0.009999999776482582,
        0.0,
        0.0,
        -0.009999999776482582,
        0.0,
        0.0,
        0.0,
        0.0,
        0.0,
        1.0
      ],
      "name": "imperfect-black-bmw-e36.FBX"
    },
    {
      "children": [
        3
      ],
      "name": "RootNode"
    },
    {
      "children": [
        4,
        5,
        6
      ],
      "matrix": [
        254.0,
        0.0,
        0.0,
        0.0,
        0.0,
        -4.138185256552518e-05,
        -253.99999999999665,
        0.0,
        0.0,
        253.99999999999665,
        -4.138185256552518e-05,
        0.0,
        0.0,
        0.0,
        -68571.1484375,
        1.0
      ],
      "name": "Tire.001"
    },
    {
      "mesh": 0,
      "name": "Tire.001_Material #1.007_0"
    },
    {
      "mesh": 1,
      "name": "Tire.001_Material #1.007_0"
    },
    {
      "mesh": 2,
      "name": "Tire.001_Material #1.007_0"
    }
  ],
  "samplers": [
    {
      "magFilter": 9729,
      "minFilter": 9987,
      "wrapS": 10497,
      "wrapT": 10497
    }
  ],
  "scene": 0,
  "scenes": [
    {
      "name": "Sketchfab_Scene",
      "nodes": [
        0
      ]
    }
  ],
  "textures": [
    {
      "sampler": 0,
      "source": 0
    },
    {
      "sampler": 0,
      "source": 1
    },
    {
      "sampler": 0,
      "source": 2
    }
  ]
}
