{
	"asset":{
		"generator":"Khronos glTF Blender I/O v4.5.47",
		"version":"2.0"
	},
	"scene":0,
	"scenes":[
		{
			"name":"Scene",
			"nodes":[
				0,
				1,
				2,
				3,
				4,
				5,
				6,
				7
			]
		}
	],
	"nodes":[
		{
			"mesh":0,
			"name":"Cube.001"
		},
		{
			"mesh":1,
			"name":"Cube.002"
		},
		{
			"mesh":2,
			"name":"Cube.003"
		},
		{
			"mesh":3,
			"name":"Cube.004"
		},
		{
			"mesh":4,
			"name":"Cube.005"
		},
		{
			"mesh":5,
			"name":"Cube.006"
		},
		{
			"mesh":6,
			"name":"Cube.007"
		},
		{
			"mesh":7,
			"name":"Cube.008"
		}
	],
	"materials":[
		{
			"name":"Cube.001",
			"normalTexture":{
				"index":0
			},
			"pbrMetallicRoughness":{
				"baseColorTexture":{
					"index":1
				},
				"metallicRoughnessTexture":{
					"index":2
				}
			}
		},
		{
			"name":"Cube.002",
			"normalTexture":{
				"index":3
			},
			"pbrMetallicRoughness":{
				"baseColorTexture":{
					"index":4
				},
				"metallicRoughnessTexture":{
					"index":5
				}
			}
		},
		{
			"name":"Cube.003",
			"normalTexture":{
				"index":6
			},
			"pbrMetallicRoughness":{
				"baseColorTexture":{
					"index":7
				},
				"metallicRoughnessTexture":{
					"index":8
				}
			}
		},
		{
			"name":"Cube.004",
			"normalTexture":{
				"index":9
			},
			"pbrMetallicRoughness":{
				"baseColorTexture":{
					"index":10
				},
				"metallicRoughnessTexture":{
					"index":11
				}
			}
		},
		{
			"name":"Cube.005",
			"normalTexture":{
				"index":12
			},
			"pbrMetallicRoughness":{
				"baseColorTexture":{
					"index":13
				},
				"metallicRoughnessTexture":{
					"index":14
				}
			}
		},
		{
			"name":"Cube.006",
			"normalTexture":{
				"index":15
			},
			"pbrMetallicRoughness":{
				"baseColorTexture":{
					"index":16
				},
				"metallicRoughnessTexture":{
					"index":17
				}
			}
		},
		{
			"emissiveTexture":{
				"index":18
			},
			"name":"Cube.007",
			"normalTexture":{
				"index":19
			},
			"pbrMetallicRoughness":{
				"baseColorTexture":{
					"index":20
				},
				"metallicRoughnessTexture":{
					"index":21
				}
			}
		},
		{
			"name":"Cube.008",
			"normalTexture":{
				"index":22
			},
			"pbrMetallicRoughness":{
				"baseColorTexture":{
					"index":23
				},
				"metallicRoughnessTexture":{
					"index":24
				}
			}
		}
	],
	"meshes":[
		{
			"name":"Cube.002",
			"primitives":[
				{
					"attributes":{
						"POSITION":0,
						"NORMAL":1,
						"TEXCOORD_0":2,
						"TANGENT":3
					},
					"indices":4,
					"material":0
				}
			]
		},
		{
			"name":"Cube.003",
			"primitives":[
				{
					"attributes":{
						"POSITION":5,
						"NORMAL":6,
						"TEXCOORD_0":7,
						"TANGENT":8
					},
					"indices":4,
					"material":1
				}
			]
		},
		{
			"name":"Cube.004",
			"primitives":[
				{
					"attributes":{
						"POSITION":9,
						"NORMAL":10,
						"TEXCOORD_0":11,
						"TANGENT":12
					},
					"indices":4,
					"material":2
				}
			]
		},
		{
			"name":"Cube.006",
			"primitives":[
				{
					"attributes":{
						"POSITION":13,
						"NORMAL":14,
						"TEXCOORD_0":15,
						"TANGENT":16
					},
					"indices":4,
					"material":3
				}
			]
		},
		{
			"name":"Cube.007",
			"primitives":[
				{
					"attributes":{
						"POSITION":17,
						"NORMAL":18,
						"TEXCOORD_0":19,
						"TANGENT":20
					},
					"indices":4,
					"material":4
				}
			]
		},
		{
			"name":"Cube.008",
			"primitives":[
				{
					"attributes":{
						"POSITION":21,
						"NORMAL":22,
						"TEXCOORD_0":23,
						"TANGENT":24
					},
					"indices":4,
					"material":5
				}
			]
		},
		{
			"name":"Cube.009",
			"primitives":[
				{
					"attributes":{
						"POSITION":25,
						"NORMAL":26,
						"TEXCOORD_0":27,
						"TANGENT":28
					},
					"indices":4,
					"material":6
				}
			]
		},
		{
			"name":"Cube.001",
			"primitives":[
				{
					"attributes":{
						"POSITION":29,
						"NORMAL":30,
						"TEXCOORD_0":31,
						"TANGENT":32
					},
					"indices":4,
					"material":7
				}
			]
		}
	],
	"textures":[
		{
			"sampler":0,
			"source":0
		},
		{
			"sampler":0,
			"source":1
		},
		{
			"sampler":0,
			"source":2
		},
		{
			"sampler":0,
			"source":0
		},
		{
			"sampler":0,
			"source":3
		},
		{
			"sampler":0,
			"source":2
		},
		{
			"sampler":0,
			"source":0
		},
		{
			"sampler":0,
			"source":4
		},
		{
			"sampler":0,
			"source":2
		},
		{
			"sampler":0,
			"source":0
		},
		{
			"sampler":0,
			"source":1
		},
		{
			"sampler":0,
			"source":2
		},
		{
			"sampler":0,
			"source":0
		},
		{
			"sampler":0,
			"source":1
		},
		{
			"sampler":0,
			"source":2
		},
		{
			"sampler":0,
			"source":0
		},
		{
			"sampler":0,
			"source":1
		},
		{
			"sampler":0,
			"source":2
		},
		{
			"sampler":0,
			"source":4
		},
		{
			"sampler":0,
			"source":0
		},
		{
			"sampler":0,
			"source":1
		},
		{
			"sampler":0,
			"source":2
		},
		{
			"sampler":0,
			"source":0
		},
		{
			"sampler":0,
			"source":1
		},
		{
			"sampler":0,
			"source":2
		}
	],
	"images":[
		{
			"mimeType":"image/png",
			"name":"BumpMapFlatColour",
			"uri":"BumpMapFlatColour.png"
		},
		{
			"mimeType":"image/jpeg",
			"name":"White",
			"uri":"White.jpg"
		},
		{
			"mimeType":"image/png",
			"name":"streaky-metal1_metallic",
			"uri":"streaky-metal1_metallic.png"
		},
		{
			"mimeType":"image/jpeg",
			"name":"Green",
			"uri":"Green.jpg"
		},
		{
			"mimeType":"image/jpeg",
			"name":"Red",
			"uri":"Red.jpg"
		}
	],
	"accessors":[
		{
			"bufferView":0,
			"componentType":5126,
			"count":36,
			"max":[
				10,
				-2.799999952316284,
				8.738597869873047
			],
			"min":[
				-10,
				-3.200000047683716,
				-11.261411666870117
			],
			"type":"VEC3"
		},
		{
			"bufferView":1,
			"componentType":5126,
			"count":36,
			"type":"VEC3"
		},
		{
			"bufferView":2,
			"componentType":5126,
			"count":36,
			"type":"VEC2"
		},
		{
			"bufferView":3,
			"componentType":5126,
			"count":36,
			"type":"VEC4"
		},
		{
			"bufferView":4,
			"componentType":5123,
			"count":36,
			"type":"SCALAR"
		},
		{
			"bufferView":5,
			"componentType":5126,
			"count":36,
			"max":[
				10.035724639892578,
				16.801422119140625,
				8.765523910522461
			],
			"min":[
				9.635721206665039,
				-3.1985816955566406,
				-11.127073287963867
			],
			"type":"VEC3"
		},
		{
			"bufferView":6,
			"componentType":5126,
			"count":36,
			"type":"VEC3"
		},
		{
			"bufferView":7,
			"componentType":5126,
			"count":36,
			"type":"VEC2"
		},
		{
			"bufferView":8,
			"componentType":5126,
			"count":36,
			"type":"VEC4"
		},
		{
			"bufferView":9,
			"componentType":5126,
			"count":36,
			"max":[
				-9.61034870147705,
				16.801422119140625,
				8.765523910522461
			],
			"min":[
				-10.01035213470459,
				-3.1985816955566406,
				-11.127073287963867
			],
			"type":"VEC3"
		},
		{
			"bufferView":10,
			"componentType":5126,
			"count":36,
			"type":"VEC3"
		},
		{
			"bufferView":11,
			"componentType":5126,
			"count":36,
			"type":"VEC2"
		},
		{
			"bufferView":12,
			"componentType":5126,
			"count":36,
			"type":"VEC4"
		},
		{
			"bufferView":13,
			"componentType":5126,
			"count":36,
			"max":[
				10,
				17.186019897460938,
				8.738597869873047
			],
			"min":[
				-10,
				16.78601837158203,
				-11.261411666870117
			],
			"type":"VEC3"
		},
		{
			"bufferView":14,
			"componentType":5126,
			"count":36,
			"type":"VEC3"
		},
		{
			"bufferView":15,
			"componentType":5126,
			"count":36,
			"type":"VEC2"
		},
		{
			"bufferView":16,
			"componentType":5126,
			"count":36,
			"type":"VEC4"
		},
		{
			"bufferView":17,
			"componentType":5126,
			"count":36,
			"max":[
				10.051677703857422,
				17.11444664001465,
				9.146371841430664
			],
			"min":[
				-9.951467514038086,
				-2.885554790496826,
				8.532407760620117
			],
			"type":"VEC3"
		},
		{
			"bufferView":18,
			"componentType":5126,
			"count":36,
			"type":"VEC3"
		},
		{
			"bufferView":19,
			"componentType":5126,
			"count":36,
			"type":"VEC2"
		},
		{
			"bufferView":20,
			"componentType":5126,
			"count":36,
			"type":"VEC4"
		},
		{
			"bufferView":21,
			"componentType":5126,
			"count":36,
			"max":[
				7.914506912231445,
				9.089163780212402,
				6.116554260253906
			],
			"min":[
				0.7128512859344482,
				-2.9108362197875977,
				-1.0850985050201416
			],
			"type":"VEC3"
		},
		{
			"bufferView":22,
			"componentType":5126,
			"count":36,
			"type":"VEC3"
		},
		{
			"bufferView":23,
			"componentType":5126,
			"count":36,
			"type":"VEC2"
		},
		{
			"bufferView":24,
			"componentType":5126,
			"count":36,
			"type":"VEC4"
		},
		{
			"bufferView":25,
			"componentType":5126,
			"count":36,
			"max":[
				1.6368789672851562,
				16.879392623901367,
				0.4044480323791504
			],
			"min":[
				-3.392706871032715,
				16.318618774414062,
				-4.625139236450195
			],
			"type":"VEC3"
		},
		{
			"bufferView":26,
			"componentType":5126,
			"count":36,
			"type":"VEC3"
		},
		{
			"bufferView":27,
			"componentType":5126,
			"count":36,
			"type":"VEC2"
		},
		{
			"bufferView":28,
			"componentType":5126,
			"count":36,
			"type":"VEC4"
		},
		{
			"bufferView":29,
			"componentType":5126,
			"count":36,
			"max":[
				-0.4382362365722656,
				2.1731927394866943,
				-2.965475082397461
			],
			"min":[
				-7.42102575302124,
				-2.826807737350464,
				-9.948265075683594
			],
			"type":"VEC3"
		},
		{
			"bufferView":30,
			"componentType":5126,
			"count":36,
			"type":"VEC3"
		},
		{
			"bufferView":31,
			"componentType":5126,
			"count":36,
			"type":"VEC2"
		},
		{
			"bufferView":32,
			"componentType":5126,
			"count":36,
			"type":"VEC4"
		}
	],
	"bufferViews":[
		{
			"buffer":0,
			"byteLength":432,
			"byteOffset":0,
			"target":34962
		},
		{
			"buffer":0,
			"byteLength":432,
			"byteOffset":432,
			"target":34962
		},
		{
			"buffer":0,
			"byteLength":288,
			"byteOffset":864,
			"target":34962
		},
		{
			"buffer":0,
			"byteLength":576,
			"byteOffset":1152,
			"target":34962
		},
		{
			"buffer":0,
			"byteLength":72,
			"byteOffset":1728,
			"target":34963
		},
		{
			"buffer":0,
			"byteLength":432,
			"byteOffset":1800,
			"target":34962
		},
		{
			"buffer":0,
			"byteLength":432,
			"byteOffset":2232,
			"target":34962
		},
		{
			"buffer":0,
			"byteLength":288,
			"byteOffset":2664,
			"target":34962
		},
		{
			"buffer":0,
			"byteLength":576,
			"byteOffset":2952,
			"target":34962
		},
		{
			"buffer":0,
			"byteLength":432,
			"byteOffset":3528,
			"target":34962
		},
		{
			"buffer":0,
			"byteLength":432,
			"byteOffset":3960,
			"target":34962
		},
		{
			"buffer":0,
			"byteLength":288,
			"byteOffset":4392,
			"target":34962
		},
		{
			"buffer":0,
			"byteLength":576,
			"byteOffset":4680,
			"target":34962
		},
		{
			"buffer":0,
			"byteLength":432,
			"byteOffset":5256,
			"target":34962
		},
		{
			"buffer":0,
			"byteLength":432,
			"byteOffset":5688,
			"target":34962
		},
		{
			"buffer":0,
			"byteLength":288,
			"byteOffset":6120,
			"target":34962
		},
		{
			"buffer":0,
			"byteLength":576,
			"byteOffset":6408,
			"target":34962
		},
		{
			"buffer":0,
			"byteLength":432,
			"byteOffset":6984,
			"target":34962
		},
		{
			"buffer":0,
			"byteLength":432,
			"byteOffset":7416,
			"target":34962
		},
		{
			"buffer":0,
			"byteLength":288,
			"byteOffset":7848,
			"target":34962
		},
		{
			"buffer":0,
			"byteLength":576,
			"byteOffset":8136,
			"target":34962
		},
		{
			"buffer":0,
			"byteLength":432,
			"byteOffset":8712,
			"target":34962
		},
		{
			"buffer":0,
			"byteLength":432,
			"byteOffset":9144,
			"target":34962
		},
		{
			"buffer":0,
			"byteLength":288,
			"byteOffset":9576,
			"target":34962
		},
		{
			"buffer":0,
			"byteLength":576,
			"byteOffset":9864,
			"target":34962
		},
		{
			"buffer":0,
			"byteLength":432,
			"byteOffset":10440,
			"target":34962
		},
		{
			"buffer":0,
			"byteLength":432,
			"byteOffset":10872,
			"target":34962
		},
		{
			"buffer":0,
			"byteLength":288,
			"byteOffset":11304,
			"target":34962
		},
		{
			"buffer":0,
			"byteLength":576,
			"byteOffset":11592,
			"target":34962
		},
		{
			"buffer":0,
			"byteLength":432,
			"byteOffset":12168,
			"target":34962
		},
		{
			"buffer":0,
			"byteLength":432,
			"byteOffset":12600,
			"target":34962
		},
		{
			"buffer":0,
			"byteLength":288,
			"byteOffset":13032,
			"target":34962
		},
		{
			"buffer":0,
			"byteLength":576,
			"byteOffset":13320,
			"target":34962
		}
	],
	"samplers":[
		{
			"magFilter":9729,
			"minFilter":9987
		}
	],
	"buffers":[
		{
			"byteLength":13896,
			"uri":"Cornel.bin"
		}
	]
}
