{
	"asset":{
		"generator":"Khronos glTF Blender I/O v4.5.47",
		"version":"2.0"
	},
	"scene":0,
	"scenes":[
		{
			"name":"Scene",
			"nodes":[
				0
			]
		}
	],
	"nodes":[
		{
			"mesh":0,
			"name":"horse_statue_01"
		}
	],
	"materials":[
		{
			"doubleSided":true,
			"name":"horse_statue_01",
			"normalTexture":{
				"index":0
			},
			"pbrMetallicRoughness":{
				"baseColorTexture":{
					"index":1
				},
				"metallicFactor":0,
				"metallicRoughnessTexture":{
					"index":2
				}
			}
		},
		{
			"doubleSided":true,
			"name":"horse_statue_01_base",
			"normalTexture":{
				"index":3
			},
			"pbrMetallicRoughness":{
				"baseColorTexture":{
					"index":4
				},
				"metallicFactor":0,
				"metallicRoughnessTexture":{
					"index":5
				}
			}
		}
	],
	"meshes":[
		{
			"extras":{
				"targetNames":[
					"hooves"
				]
			},
			"name":"Plane",
			"primitives":[
				{
					"attributes":{
						"POSITION":0,
						"NORMAL":1,
						"TEXCOORD_0":2,
						"TANGENT":3
					},
					"indices":4,
					"material":0,
					"targets":[
						{
							"POSITION":5,
							"NORMAL":6
						}
					]
				},
				{
					"attributes":{
						"POSITION":7,
						"NORMAL":8,
						"TEXCOORD_0":9,
						"TANGENT":10
					},
					"indices":11,
					"material":1,
					"targets":[
						{
							"POSITION":12,
							"NORMAL":13
						}
					]
				}
			],
			"weights":[
				1
			]
		}
	],
	"textures":[
		{
			"sampler":0,
			"source":0
		},
		{
			"sampler":0,
			"source":1
		},
		{
			"sampler":0,
			"source":2
		},
		{
			"sampler":0,
			"source":0
		},
		{
			"sampler":0,
			"source":1
		},
		{
			"sampler":0,
			"source":2
		}
	],
	"images":[
		{
			"mimeType":"image/jpeg",
			"name":"horse_statue_01_nor_gl_4k",
			"uri":"horse_statue_01_nor_gl_4k.jpg"
		},
		{
			"mimeType":"image/jpeg",
			"name":"horse_statue_01_diff_4k",
			"uri":"horse_statue_01_diff_4k.jpg"
		},
		{
			"mimeType":"image/jpeg",
			"name":"horse_statue_01_arm_4k",
			"uri":"horse_statue_01_arm_4k.jpg"
		}
	],
	"accessors":[
		{
			"bufferView":0,
			"componentType":5126,
			"count":12255,
			"max":[
				0.07783335447311401,
				0.21999721229076385,
				0.053308602422475815
			],
			"min":[
				-0.08515907824039459,
				0.011014513671398163,
				-0.05248892307281494
			],
			"type":"VEC3"
		},
		{
			"bufferView":1,
			"componentType":5126,
			"count":12255,
			"type":"VEC3"
		},
		{
			"bufferView":2,
			"componentType":5126,
			"count":12255,
			"type":"VEC2"
		},
		{
			"bufferView":3,
			"componentType":5126,
			"count":12255,
			"type":"VEC4"
		},
		{
			"bufferView":4,
			"componentType":5123,
			"count":65724,
			"type":"SCALAR"
		},
		{
			"componentType":5126,
			"count":12255,
			"max":[
				0.0008086264133453369,
				0.001424551010131836,
				0.0007443949580192566
			],
			"min":[
				-0.0009574741125106812,
				-0.001507088541984558,
				-0.0008131870999932289
			],
			"sparse":{
				"count":663,
				"indices":{
					"bufferView":5,
					"componentType":5123
				},
				"values":{
					"bufferView":6
				}
			},
			"type":"VEC3"
		},
		{
			"bufferView":7,
			"componentType":5126,
			"count":12255,
			"type":"VEC3"
		},
		{
			"bufferView":8,
			"componentType":5126,
			"count":339,
			"max":[
				0.05958269536495209,
				0.011499738320708275,
				0.053880687803030014
			],
			"min":[
				-0.059524279087781906,
				1.830275505199097e-05,
				-0.05391017720103264
			],
			"type":"VEC3"
		},
		{
			"bufferView":9,
			"componentType":5126,
			"count":339,
			"type":"VEC3"
		},
		{
			"bufferView":10,
			"componentType":5126,
			"count":339,
			"type":"VEC2"
		},
		{
			"bufferView":11,
			"componentType":5126,
			"count":339,
			"type":"VEC4"
		},
		{
			"bufferView":12,
			"componentType":5123,
			"count":1440,
			"type":"SCALAR"
		},
		{
			"componentType":5126,
			"count":339,
			"max":[
				0,
				0,
				0
			],
			"min":[
				0,
				0,
				0
			],
			"sparse":{
				"count":1,
				"indices":{
					"bufferView":13,
					"componentType":5121
				},
				"values":{
					"bufferView":14
				}
			},
			"type":"VEC3"
		},
		{
			"bufferView":15,
			"componentType":5126,
			"count":339,
			"type":"VEC3"
		}
	],
	"bufferViews":[
		{
			"buffer":0,
			"byteLength":147060,
			"byteOffset":0,
			"target":34962
		},
		{
			"buffer":0,
			"byteLength":147060,
			"byteOffset":147060,
			"target":34962
		},
		{
			"buffer":0,
			"byteLength":98040,
			"byteOffset":294120,
			"target":34962
		},
		{
			"buffer":0,
			"byteLength":196080,
			"byteOffset":392160,
			"target":34962
		},
		{
			"buffer":0,
			"byteLength":131448,
			"byteOffset":588240,
			"target":34963
		},
		{
			"buffer":0,
			"byteLength":1326,
			"byteOffset":719688
		},
		{
			"buffer":0,
			"byteLength":7956,
			"byteOffset":721016
		},
		{
			"buffer":0,
			"byteLength":147060,
			"byteOffset":728972,
			"target":34962
		},
		{
			"buffer":0,
			"byteLength":4068,
			"byteOffset":876032,
			"target":34962
		},
		{
			"buffer":0,
			"byteLength":4068,
			"byteOffset":880100,
			"target":34962
		},
		{
			"buffer":0,
			"byteLength":2712,
			"byteOffset":884168,
			"target":34962
		},
		{
			"buffer":0,
			"byteLength":5424,
			"byteOffset":886880,
			"target":34962
		},
		{
			"buffer":0,
			"byteLength":2880,
			"byteOffset":892304,
			"target":34963
		},
		{
			"buffer":0,
			"byteLength":1,
			"byteOffset":895184
		},
		{
			"buffer":0,
			"byteLength":12,
			"byteOffset":895188
		},
		{
			"buffer":0,
			"byteLength":4068,
			"byteOffset":895200,
			"target":34962
		}
	],
	"samplers":[
		{
			"magFilter":9729,
			"minFilter":9987
		}
	],
	"buffers":[
		{
			"byteLength":899268,
			"uri":"Horse.bin"
		}
	]
}
